<svg height="40.707" viewBox="0 0 37.656 40.707" width="37.656" xmlns="http://www.w3.org/2000/svg"><path d="m610.221 682.5a1.459 1.459 0 0 1 -1.446-1.471l.144-18.706a1.458 1.458 0 0 1 1.456-1.448h.012c3.686.029 5.495 1.481 6.362 2.7a5.288 5.288 0 0 1 1 2.913l-.081 10.522c-.014 1.9-1.567 5.495-7.338 5.495zm1.48-3.015c2.8-.425 3.037-2.145 3.055-2.528l.08-10.495c-.012-.364-.224-2.083-3.015-2.551zm-13.176 2.925c-3.686-.029-5.495-1.481-6.363-2.7a5.28 5.28 0 0 1 -1-2.912l.08-10.522c.014-1.9 1.567-5.5 7.339-5.5h.109a1.458 1.458 0 0 1 1.446 1.471l-.143 18.706a1.459 1.459 0 0 1 -1.457 1.448zm-4.37-16.081-.079 10.5c.012.363.224 2.082 3.014 2.549l.12-15.574c-2.799.421-3.037 2.142-3.055 2.524zm27.243 7.326a1.667 1.667 0 0 1 -1.652-1.681l.086-11.244a15.469 15.469 0 0 0 -15.335-15.6h-.121a15.486 15.486 0 0 0 -15.452 15.363l-.086 11.243a1.667 1.667 0 0 1 -1.665 1.656h-.013a1.667 1.667 0 0 1 -1.652-1.681l.086-11.244a18.785 18.785 0 1 1 37.569.289l-.088 11.244a1.667 1.667 0 0 1 -1.665 1.655z" fill="#50c3af" transform="translate(-585.507 -641.793)"/></svg>