<svg xmlns="http://www.w3.org/2000/svg" width="37.656" height="35" viewBox="0 0 37.656 35"><path d="M610.221,676.793a1.364,1.364,0,0,1-1.446-1.264l.144-16.084a1.369,1.369,0,0,1,1.456-1.245h.012c3.686.025,5.495,1.274,6.362,2.318a4.112,4.112,0,0,1,1,2.5l-.081,9.047c-.014,1.634-1.567,4.724-7.338,4.724Zm1.48-2.592c2.8-.365,3.037-1.844,3.055-2.174l.08-9.024c-.012-.313-.224-1.791-3.015-2.193Zm-13.176,2.515c-3.686-.025-5.495-1.274-6.363-2.318a4.105,4.105,0,0,1-1-2.5l.08-9.047c.014-1.634,1.567-4.725,7.339-4.725h.109a1.586,1.586,0,0,1,1.028.375,1.173,1.173,0,0,1,.419.891l-.143,16.083a1.37,1.37,0,0,1-1.457,1.245Zm-4.37-13.827-.079,9.024c.012.312.224,1.79,3.014,2.191l.12-13.39C594.411,661.08,594.173,662.56,594.155,662.889Zm27.243,6.3a1.558,1.558,0,0,1-1.652-1.445l.086-9.667a12.336,12.336,0,0,0-4.442-9.441,16.653,16.653,0,0,0-10.893-3.971h-.121c-8.466,0-15.386,5.9-15.452,13.209l-.086,9.667a1.566,1.566,0,0,1-1.665,1.424h-.013a1.558,1.558,0,0,1-1.652-1.446l.086-9.667c.079-8.921,8.582-16.136,18.928-16.055a20.243,20.243,0,0,1,13.241,4.827,15,15,0,0,1,5.4,11.477l-.086,9.667a1.565,1.565,0,0,1-1.665,1.423Z" transform="translate(-585.507 -641.793)" fill="#50c3af"/></svg>