<svg xmlns="http://www.w3.org/2000/svg" width="37.856" height="35" viewBox="0 0 37.856 35"><path d="M396.99,679.966c-.068-.062-6.92-6.348-14.674-15.215a11.711,11.711,0,0,1-2.174-12.608,10.749,10.749,0,0,1,9.642-6.743,10.052,10.052,0,0,1,8.316,3.893,10.054,10.054,0,0,1,8.317-3.893,10.747,10.747,0,0,1,9.641,6.743,11.711,11.711,0,0,1-2.173,12.608c-7.754,8.868-14.607,15.153-14.674,15.215a1.637,1.637,0,0,1-2.22,0Zm-13.8-26.429a8.209,8.209,0,0,0,1.609,8.93c5.8,6.634,11.081,11.791,13.3,13.905,2.222-2.114,7.5-7.271,13.3-13.905a8.209,8.209,0,0,0,1.609-8.93,7.516,7.516,0,0,0-6.6-4.716c-5.548,0-6.653,4.365-6.7,4.55a1.658,1.658,0,0,1-3.24,0c-.116-.454-1.321-4.55-6.7-4.55A7.514,7.514,0,0,0,383.189,653.537Zm23.56,8.693a1.668,1.668,0,1,1,1.179.489A1.69,1.69,0,0,1,406.749,662.23Zm1.535-5.121c-.2-2.932-2.248-3.245-2.336-3.258a1.666,1.666,0,1,1,.45-3.3c1.673.227,4.914,1.845,5.213,6.338a1.666,1.666,0,0,1-1.553,1.774c-.038,0-.076,0-.112,0A1.667,1.667,0,0,1,408.284,657.109Z" transform="translate(-379.172 -645.4)" fill="#50c3af"/></svg>