<svg xmlns="http://www.w3.org/2000/svg" width="32.153" height="37.939" viewBox="0 0 32.153 37.939"><path d="M33.548,42.9,20.486,37.558,1.395,13.73l2.051-4.15L4.3,8.847,6.644,6.894l.879-.708,4.37-1.221L30.985,28.793ZM30.74,34.7l-.977-4.883a1.915,1.915,0,0,0-1-.391q-1.245,0-1.978,1.709a2.958,2.958,0,0,0-.806-.171,2.383,2.383,0,0,0-1.648.757,2.2,2.2,0,0,0-.793,1.587q0,.2.024.513-2.026.439-2.026,1.855a3,3,0,0,0,.171.854L26.2,38.461A4.661,4.661,0,0,1,30.74,34.7Zm-4.2-4.785A2.359,2.359,0,0,1,28.519,28.6q.146,0,.391.024L11.136,6.43,8.3,7.138Zm-1.2.342L7.425,7.87,5.081,9.823,23.026,32.211A3.165,3.165,0,0,1,25.345,30.258ZM22.464,33.31,4.227,10.556l-1.27,2.686L20.731,35.434A2.542,2.542,0,0,1,22.464,33.31Z" transform="translate(-1.395 -4.965)" fill="#c6cbd1"/></svg>