<svg xmlns="http://www.w3.org/2000/svg" width="41.9" height="35" viewBox="0 0 41.9 35"><path d="M173.966,686.6a1.81,1.81,0,0,1-1.667-1.925c0-5.621,9.061-9.384,11.838-10.4a1.5,1.5,0,0,1,1.58.366l2.829,2.768,2.83-2.768a1.5,1.5,0,0,1,1.58-.366c2.777,1.019,11.837,4.781,11.837,10.4a1.81,1.81,0,0,1-1.666,1.925Zm2.815-3.853h23.531a25.425,25.425,0,0,0-7.5-4.468l-3.191,3.121a1.5,1.5,0,0,1-2.152,0l-3.19-3.121A25.407,25.407,0,0,0,176.782,682.747Zm29.965.2a1.46,1.46,0,0,1,0-2.89h4.442a12.317,12.317,0,0,0-3.724-3.318,1.557,1.557,0,0,1-.562-1.937,1.178,1.178,0,0,1,1.673-.652c.576.331,5.625,3.338,5.625,7.352a1.358,1.358,0,0,1-1.249,1.445Zm-8.838-10.515a1.61,1.61,0,0,1,0-2.044,1.135,1.135,0,0,1,1.768,0,3.562,3.562,0,0,0,2.706,1.3c2.111,0,3.829-1.986,3.829-4.428s-1.717-4.426-3.829-4.426a3.37,3.37,0,0,0-1.49.348,1.2,1.2,0,0,1-1.637-.769,1.536,1.536,0,0,1,.665-1.893,5.57,5.57,0,0,1,2.462-.575c3.489,0,6.327,3.281,6.327,7.315s-2.838,7.317-6.327,7.317A5.889,5.889,0,0,1,197.908,672.429Zm-18.987-9.7c0-6.137,4.318-11.129,9.626-11.129s9.626,4.992,9.626,11.129-4.318,11.13-9.626,11.13S178.921,668.866,178.921,662.729Zm3.332,0c0,4.013,2.823,7.276,6.294,7.276s6.294-3.263,6.294-7.276-2.823-7.276-6.294-7.276S182.253,658.716,182.253,662.729Z" transform="translate(-172.3 -651.6)" fill="#50c3af"/></svg>