<svg xmlns="http://www.w3.org/2000/svg" width="34.875" height="34.875" viewBox="0 0 34.875 34.875"><path d="M18,.563A17.438,17.438,0,1,0,35.438,18,17.437,17.437,0,0,0,18,.563ZM30.213,8.969l-4.458,4.458a9.1,9.1,0,0,0-3.182-3.182l4.458-4.458a15.356,15.356,0,0,1,3.182,3.182ZM18,24.75A6.75,6.75,0,1,1,24.75,18,6.75,6.75,0,0,1,18,24.75ZM8.969,5.787l4.458,4.458a9.1,9.1,0,0,0-3.182,3.182L5.787,8.969A15.354,15.354,0,0,1,8.969,5.787ZM5.787,27.031l4.458-4.458a9.1,9.1,0,0,0,3.182,3.182L8.969,30.213a15.356,15.356,0,0,1-3.182-3.182Zm21.244,3.182-4.458-4.458a9.1,9.1,0,0,0,3.182-3.182l4.458,4.458A15.357,15.357,0,0,1,27.031,30.213Z" transform="translate(-0.563 -0.563)" fill="#c6cbd1"/></svg>